<svg width="65" height="66" viewBox="0 0 65 66" fill="none" xmlns="http://www.w3.org/2000/svg">
<path fill-rule="evenodd" clip-rule="evenodd" d="M30.9474 0.0817641C28.3913 0.555929 26.5864 2.10922 25.759 4.54686C24.8309 7.28105 25.4751 11.4223 27.1921 13.7593C27.6805 14.424 28.7705 15.4738 29.2979 15.7875C29.5985 15.9662 29.8192 16.1378 29.7886 16.1689C29.758 16.1999 29.0855 16.3113 28.2942 16.4165C23.0782 17.1091 19.9144 18.5554 18.5496 20.8709C17.7648 22.2025 17.7493 22.3793 17.7493 29.9805V36.8601L18.0615 37.1767C18.4745 37.5956 19.0591 37.5956 19.4721 37.1767L19.7844 36.8601V30.1057C19.7844 22.3202 19.7657 22.4796 20.8189 21.311C22.283 19.6863 25.6666 18.624 30.5135 18.2672C33.5816 18.0413 36.8472 18.3508 40.0721 19.1731C41.9695 19.6568 43.0679 20.2138 44.0348 21.1822C45.2602 22.4096 45.2234 22.1322 45.2234 30.1057V36.8601L45.5356 37.1767C45.9486 37.5956 46.5332 37.5956 46.9462 37.1767L47.2585 36.8601L47.2569 29.9855C47.2558 24.6572 47.2171 22.9659 47.0854 22.4661C46.5879 20.5802 45.343 19.1672 43.286 18.1528C42.5448 17.7872 41.4298 17.3688 40.7079 17.1851C39.2329 16.8099 36.6125 16.3391 35.9994 16.3391C35.2069 16.3391 35.1133 16.2109 35.6458 15.8546C38.3821 14.0241 40.0057 10.1838 39.6239 6.4452C39.3076 3.34868 37.6732 1.16166 35.0569 0.334196C34.1125 0.0354569 31.9225 -0.0990791 30.9474 0.0817641ZM34.0709 2.21409C35.6001 2.61808 36.4875 3.33488 37.099 4.65999C38.0222 6.66074 37.7532 9.89076 36.482 12.066C34.781 14.9769 31.6742 15.5356 29.512 13.3192C28.0785 11.8497 27.3964 9.9817 27.3886 7.5033C27.3807 5.02154 28.1356 3.49173 29.7984 2.61976C30.9082 2.03776 32.7435 1.86349 34.0709 2.21409ZM3.59479 19.1812C2.50066 19.4593 1.39801 20.3673 0.864556 21.429L0.538047 22.0791L0.223621 32.9142C-0.127818 45.0298 -0.135577 44.8163 0.719045 46.6143C1.09389 47.4031 1.61831 47.9829 6.00272 52.4561L10.8702 57.4222L10.9072 61.4L10.9444 65.3778L11.3013 65.6889L11.6582 66H17.5118H23.3654L23.7449 65.6152L24.1244 65.2303L24.0756 57.0052C24.0223 48.038 24.0192 47.998 23.2651 46.4879C22.7201 45.3964 22.3776 45.0254 20.1024 43.0613C18.9131 42.0347 17.0529 40.2946 15.9686 39.1943C14.6515 37.8579 13.8144 37.1117 13.4469 36.9463C12.0843 36.3332 10.5939 36.5681 9.49612 37.5691L8.84565 38.1621L8.81894 37.7956C8.80431 37.5938 8.78994 34.4105 8.78714 30.7214C8.78218 24.2206 8.77353 23.9835 8.50413 23.0267C8.1719 21.8459 7.71527 20.8972 7.18359 20.2832C6.40084 19.3791 4.77745 18.8806 3.59479 19.1812ZM59.368 19.2843C57.6073 19.9216 56.608 21.6313 56.2726 24.5806C56.177 25.4208 56.1584 27.6309 56.2148 31.4454C56.2604 34.5395 56.2602 37.31 56.2141 37.6022L56.1304 38.1333L55.4957 37.5546C54.4146 36.5689 52.9149 36.3369 51.5608 36.9463C51.1934 37.1117 50.3563 37.8579 49.0392 39.1943C47.9549 40.2946 46.0946 42.0347 44.9054 43.0613C42.6301 45.0254 42.2877 45.3964 41.7427 46.4879C40.9885 47.998 40.9855 48.038 40.9322 57.0052L40.8833 65.2303L41.2629 65.6152L41.6423 66H47.4959H53.3496L53.7065 65.6889L54.0634 65.3778L54.1005 61.4L54.1375 57.4222L59.005 52.4561C63.3962 47.9759 63.9135 47.404 64.2904 46.6111C65.1329 44.8386 65.1264 45.0194 64.7799 32.9142L64.4697 22.0791L64.1432 21.429C63.7527 20.6516 62.8389 19.7635 62.0791 19.4226C61.241 19.0467 60.175 18.9923 59.368 19.2843ZM5.08068 21.2915C5.66311 21.5382 6.16056 22.2456 6.47677 23.2764C6.73243 24.1097 6.74286 24.4129 6.74795 31.1729C6.75367 38.6744 6.76258 38.7959 7.40211 40.167C7.99599 41.44 9.16033 42.7979 12.8798 46.5548C16.3677 50.0781 16.5746 50.2633 17.023 50.2633C17.6466 50.2633 18.0037 49.9019 18.0037 49.2705C18.0037 48.8178 17.8112 48.5974 14.2013 44.9171C11.2775 41.9361 10.3792 40.9452 10.3132 40.6277C10.1836 40.0046 10.6034 39.1429 11.169 38.8707C12.1526 38.3974 12.4919 38.5779 14.4913 40.6376C15.4088 41.5827 17.1324 43.1994 18.3217 44.2303C20.8037 46.382 21.052 46.6359 21.4387 47.4174C22.0048 48.562 22.0647 49.466 22.0695 56.9385L22.0739 63.9362H17.4949H12.9159V60.2972V56.6583L7.91077 51.5582C2.4667 46.0109 2.34955 45.8626 2.08295 44.1798C1.98883 43.5855 2.03589 40.5015 2.25543 32.8861C2.59644 21.0529 2.48311 21.9978 3.6332 21.4019C4.28597 21.0637 4.50385 21.0471 5.08068 21.2915ZM61.3261 21.3574C61.6128 21.4895 61.9834 21.7912 62.1495 22.0279L62.4518 22.4582L62.753 32.9102C62.972 40.5073 63.0189 43.5856 62.9248 44.1798C62.6582 45.8626 62.541 46.0109 57.097 51.5582L52.0919 56.6583V60.2972V63.9362H47.5129H42.9338L42.9364 57.003C42.9378 53.0443 42.9939 49.6841 43.067 49.1709C43.2055 48.1988 43.6718 47.0302 44.1178 46.5381C44.2712 46.3687 45.3696 45.3862 46.5589 44.3547C47.7482 43.3231 49.5013 41.6778 50.4546 40.6985C52.5245 38.5722 52.8515 38.3956 53.8388 38.8707C54.4044 39.1429 54.8241 40.0046 54.6945 40.6277C54.6285 40.9452 53.7303 41.9361 50.8064 44.9171C47.1965 48.5974 47.0041 48.8178 47.0041 49.2705C47.0041 49.9019 47.3611 50.2633 47.9847 50.2633C48.4331 50.2633 48.6401 50.0781 52.128 46.5548C55.8474 42.7979 57.0118 41.44 57.6056 40.167C58.2424 38.8021 58.2519 38.6705 58.2579 31.1729C58.263 24.8453 58.286 24.0657 58.488 23.369C58.771 22.3924 59.2852 21.6279 59.8539 21.3377C60.4105 21.0536 60.6741 21.0571 61.3261 21.3574ZM24.657 25.7578C23.9738 26.0339 23.9705 26.0645 24.0094 31.7487L24.0454 37.0003L24.3457 37.2468C24.7638 37.5901 25.3258 37.5611 25.7047 37.1767L26.0169 36.8601V31.6373V26.4147L25.7308 26.0954C25.3897 25.7149 25.0372 25.6041 24.657 25.7578ZM39.6722 25.7554C38.9922 26.0307 38.9908 26.0423 38.9908 31.6589V36.8601L39.3031 37.1767C39.8043 37.6851 40.524 37.5875 40.8398 36.9681C40.994 36.666 41.0259 35.7277 41.0259 31.5089V26.4147L40.7397 26.0954C40.4003 25.7167 40.0463 25.604 39.6722 25.7554Z" fill="white"/>
</svg>
