<svg width="68" height="52" viewBox="0 0 68 52" fill="none" xmlns="http://www.w3.org/2000/svg">
<path fill-rule="evenodd" clip-rule="evenodd" d="M39.3077 0.0986476C35.6545 0.545446 30.3018 2.36971 29.7847 3.34433C29.4903 3.89909 29.5856 4.54981 30.0261 4.9942C30.5509 5.52373 31.1034 5.52682 32.1239 5.00587C34.0459 4.02491 37.1929 3.1253 39.6055 2.86698L40.8392 2.73481V4.34057C40.8392 5.81639 40.8728 5.98014 41.2569 6.36738C41.5201 6.63309 41.869 6.78877 42.2005 6.78877C42.5319 6.78877 42.8808 6.63309 43.144 6.36738C43.5281 5.98014 43.5618 5.81639 43.5618 4.34057V2.73481L44.7955 2.86698C47.3037 3.13543 50.3307 4.01838 52.4953 5.11281C53.795 5.76987 56.0546 7.24724 56.8855 7.98327L57.5269 8.55125L56.415 9.71313C55.1414 11.0439 54.9872 11.6352 55.7208 12.375C56.455 13.1159 57.0402 12.9598 58.3649 11.6697L59.5219 10.543L60.1777 11.3309C62.6396 14.2891 64.556 18.8108 65.0607 22.8524L65.2732 24.5543L63.5907 24.6401C62.0815 24.717 61.8746 24.7676 61.5834 25.1312C61.1311 25.6956 61.1696 26.4539 61.6765 26.9651C62.0604 27.3525 62.2227 27.3864 63.6858 27.3864H65.2776L65.1466 28.6309C64.8805 31.161 64.0052 34.2144 62.9202 36.3979C62.2688 37.709 60.8042 39.9883 60.0746 40.8264L59.5115 41.4734L58.3597 40.3518C57.0404 39.0671 56.4542 38.9115 55.7208 39.6515C54.9862 40.3923 55.141 40.9823 56.4207 42.3193L57.5381 43.487L56.5057 44.3296C53.4807 46.7986 48.8021 48.7397 44.8805 49.153L43.5618 49.2919V47.6861C43.5618 46.2102 43.5281 46.0464 43.144 45.6592C42.5915 45.1017 41.8094 45.1017 41.2569 45.6592C40.8725 46.0467 40.8392 46.2095 40.8392 47.6978V49.3151L40.0309 49.2401C37.7143 49.0247 34.6971 48.2026 32.5197 47.1937C31.0231 46.5002 30.5819 46.4716 30.0261 47.0323C29.5299 47.5327 29.4786 48.3015 29.9062 48.8267C30.2739 49.2782 32.8769 50.4213 34.8545 50.9998C37.4641 51.7631 39.1859 51.9976 42.2005 52C46.4035 52.0033 49.5056 51.304 53.2611 49.5063C56.17 48.1139 58.4104 46.533 60.5531 44.3607C70.5765 34.1991 70.4673 17.5349 60.3109 7.41632C56.6114 3.73053 51.8909 1.29348 46.6198 0.348222C44.8104 0.0238085 40.9872 -0.106643 39.3077 0.0986476ZM16.7534 8.58335C16.49 8.84888 16.3357 9.20076 16.3357 9.53513C16.3357 9.8695 16.49 10.2214 16.7534 10.4869L17.171 10.9083H25.014H32.857L33.2746 10.4869C33.538 10.2214 33.6923 9.8695 33.6923 9.53513C33.6923 9.20076 33.538 8.84888 33.2746 8.58335L32.857 8.16195H25.014H17.171L16.7534 8.58335ZM48.5567 17.6314L44.9404 21.265L44.0614 20.9785C41.4005 20.1117 38.4584 21.2255 37.3449 23.5213C36.702 24.8469 36.5984 26.4276 37.0639 27.8111L37.4088 28.8367L36.7418 29.5667C35.9385 30.4457 35.8437 31.2274 36.4683 31.8194C37.1034 32.421 37.8249 32.3126 38.7193 31.4809L39.4845 30.7694L40.3516 31.0518C42.9591 31.9013 45.883 30.8053 47.0266 28.5499C47.7027 27.2162 47.8147 25.632 47.3331 24.211L46.9841 23.1811L50.548 19.5674C53.7169 16.354 54.1119 15.8919 54.1119 15.3971C54.1119 14.6514 53.4641 13.998 52.7249 13.998C52.234 13.998 51.7745 14.3984 48.5567 17.6314ZM8.58558 16.8224C8.32217 17.088 8.16783 17.4398 8.16783 17.7742C8.16783 18.1086 8.32217 18.4604 8.58558 18.726L9.00316 19.1474H19.8082C27.4764 19.1474 30.7359 19.0911 31.0352 18.9534C31.5365 18.7231 31.8971 17.9448 31.7376 17.4378C31.675 17.2388 31.4621 16.9242 31.2646 16.7385C30.9152 16.4103 30.6076 16.401 19.9544 16.401H9.00316L8.58558 16.8224ZM43.5497 23.7393C44.4806 24.218 44.838 24.8488 44.838 26.0133C44.838 26.7591 44.7471 27.1429 44.4856 27.5027C43.4411 28.9388 40.9598 28.9388 39.9153 27.5027C39.6538 27.1429 39.5629 26.7591 39.5629 26.0133C39.5629 25.2675 39.6538 24.8837 39.9153 24.5239C40.3981 23.8601 41.285 23.4391 42.2005 23.4391C42.6216 23.4391 43.2288 23.5742 43.5497 23.7393ZM0.417751 25.0615C0.154338 25.327 0 25.6789 0 26.0133C0 26.3476 0.154338 26.6995 0.417751 26.9651L0.835331 27.3864H14.9744H29.1134L29.531 26.9651C30.0837 26.4077 30.0837 25.6188 29.531 25.0615L29.1134 24.6401H14.9744H0.835331L0.417751 25.0615ZM8.58558 33.3006C8.32217 33.5661 8.16783 33.918 8.16783 34.2523C8.16783 34.5867 8.32217 34.9386 8.58558 35.2041L9.00316 35.6255H19.8082C27.4764 35.6255 30.7359 35.5692 31.0352 35.4316C31.5365 35.2012 31.8971 34.423 31.7376 33.9159C31.675 33.717 31.4621 33.4023 31.2646 33.2166C30.9152 32.8884 30.6076 32.8792 19.9544 32.8792H9.00316L8.58558 33.3006ZM16.7534 41.5396C16.49 41.8052 16.3357 42.157 16.3357 42.4914C16.3357 42.8258 16.49 43.1777 16.7534 43.4432L17.171 43.8646H25.014H32.857L33.2746 43.4432C33.538 43.1777 33.6923 42.8258 33.6923 42.4914C33.6923 42.157 33.538 41.8052 33.2746 41.5396L32.857 41.1182H25.014H17.171L16.7534 41.5396Z" fill="white"/>
</svg>
