<svg width="57" height="68" viewBox="0 0 57 68" fill="none" xmlns="http://www.w3.org/2000/svg">
<path fill-rule="evenodd" clip-rule="evenodd" d="M4.48995 0.20213C2.35537 0.779799 0.590011 2.67605 0.134882 4.8798C-0.0741423 5.89195 -0.0464309 6.28578 0.261563 6.68002L0.533796 7.02829L5.11108 7.06323L9.6885 7.09816V33.9958V60.8935L5.11108 60.9284L0.533796 60.9633L0.261563 61.3116C-0.0464309 61.7059 -0.0741423 62.0997 0.134882 63.1118C0.472962 64.7487 1.72724 66.4733 3.14396 67.2496C4.57664 68.0344 3.60318 67.9998 24.2318 67.9998C42.9644 67.9998 43.1428 67.9973 43.4042 67.7341C43.5676 67.5697 43.6681 67.2914 43.6681 67.0036C43.6681 66.7157 43.5676 66.4375 43.4042 66.273C43.1432 66.0103 42.9644 66.0074 26.7773 66.0074C17.7776 66.0074 10.4143 65.9801 10.4143 65.9468C10.4143 65.9136 10.5601 65.67 10.7384 65.4055C10.9166 65.1412 11.1988 64.5856 11.3652 64.171L11.6679 63.4172V33.9958V4.57443L11.3652 3.82063C11.1988 3.40607 10.9166 2.85045 10.7384 2.58613C10.5601 2.32167 10.4143 2.07739 10.4143 2.04313C10.4143 2.00899 19.7223 1.99677 31.099 2.0159L51.7836 2.0507L52.5281 2.41863C53.3967 2.84806 54.2617 3.73788 54.6655 4.61746L54.9507 5.23857V33.9958V62.7531L54.6655 63.3742C54.2617 64.2538 53.3967 65.1436 52.5281 65.573C51.8307 65.9177 51.6472 65.9452 49.6283 66.0074C47.6905 66.0671 47.454 66.0998 47.286 66.3316C47.0132 66.708 47.0522 67.4213 47.363 67.7341C47.6017 67.9744 47.8028 67.9998 49.4679 67.9998C52.3377 67.9998 53.4884 67.6301 54.9748 66.2305C55.9146 65.3456 56.6428 64.0369 56.8642 62.8346C57.0453 61.8521 57.0453 6.13954 56.8642 5.15701C56.4247 2.77049 54.3605 0.637938 52.0081 0.139966C51.5084 0.0341025 44.7288 -0.00561308 28.2554 0.000629831C8.54467 0.0080682 5.09868 0.0372903 4.48995 0.20213ZM7.77231 2.46047C8.15552 2.67034 8.66607 3.1019 8.90677 3.41936C9.3268 3.97298 9.71357 4.85921 9.58966 4.98394C9.55707 5.01675 7.86152 5.02764 5.82195 5.00824L2.11348 4.97291L2.37833 4.37519C2.82659 3.36344 3.83833 2.48677 5.00393 2.10051C5.67442 1.87842 7.03188 2.05481 7.77231 2.46047ZM31.7917 10.1181C31.6103 10.1986 31.181 10.4392 30.8378 10.6526C30.3949 10.928 29.9352 11.076 29.2548 11.1619C28.7275 11.2286 28.095 11.35 27.8493 11.4315C27.1328 11.6696 26.3773 12.4555 25.95 13.4075C25.6811 14.0065 25.2681 14.5768 24.6009 15.27C23.3202 16.6007 23.1405 17.2458 23.5346 19.0961C23.6853 19.8035 23.6855 20.0555 23.5348 20.69C23.303 21.6653 23.2995 22.7353 23.5261 23.2742C23.6249 23.5093 24.1024 24.0777 24.5874 24.5371C25.2648 25.179 25.5709 25.5972 25.9078 26.3415C26.4059 27.4417 27.07 28.1855 27.7583 28.4141L28.2288 28.5705V33.8156C28.2288 36.9194 28.2807 39.1582 28.3558 39.2995C28.4256 39.4307 28.6577 39.6111 28.8716 39.7004C29.3745 39.91 29.5014 39.84 31.2602 38.3822C32.0244 37.7489 32.7243 37.1863 32.8159 37.132C32.9213 37.0696 33.518 37.4798 34.4449 38.252C36.4539 39.9257 36.7253 40.0391 37.367 39.4719C37.5798 39.2838 37.598 38.8468 37.598 33.9218V28.5759L38.0151 28.4295C38.8127 28.1497 39.2944 27.6439 39.8361 26.5181C40.2196 25.721 40.592 25.1974 41.2229 24.5685C42.337 23.4576 42.5566 22.9103 42.4111 21.607C42.2788 20.4232 42.2798 19.3292 42.414 18.1564C42.5589 16.8902 42.3002 16.2735 41.1527 15.149C40.5747 14.5827 40.1747 14.0586 40.0263 13.6731C39.4223 12.105 38.438 11.337 36.8465 11.1917C36.1397 11.1271 35.7154 10.9867 34.8541 10.5318C33.8921 10.0238 33.6608 9.95502 32.9407 9.96299C32.4902 9.96791 31.9732 10.0378 31.7917 10.1181ZM34.0413 12.3361C34.7528 12.7768 35.8579 13.1418 36.4805 13.1418C37.3929 13.1418 37.6845 13.3613 38.2154 14.4478C38.5606 15.1542 38.9916 15.7512 39.6217 16.3961L40.5301 17.3259L40.4252 18.1893C40.2885 19.3141 40.2897 20.5745 40.4281 21.6129L40.5393 22.4463L39.5979 23.4236C38.9562 24.0898 38.5358 24.6701 38.2773 25.2467C38.0687 25.7119 37.786 26.1923 37.649 26.3141C37.5022 26.4448 36.9671 26.594 36.3443 26.6779C35.553 26.7847 35.0328 26.9537 34.2666 27.353C33.7045 27.646 33.1006 27.8857 32.9247 27.8857C32.7488 27.8857 32.1398 27.6458 31.5715 27.3526C30.8357 26.9729 30.2596 26.7814 29.5709 26.6874C29.0388 26.6148 28.4891 26.4937 28.3493 26.4184C28.2094 26.3431 27.8809 25.8504 27.6192 25.3236C27.3117 24.7046 26.8155 24.0236 26.2168 23.3985L25.2903 22.4314L25.403 21.6718C25.5441 20.7215 25.5427 19.003 25.4 18.1008L25.2915 17.4148L26.2423 16.4037C26.8625 15.7442 27.3224 15.1053 27.5655 14.5659C28.0808 13.4218 28.28 13.2743 29.5057 13.1291C30.3007 13.0349 30.7658 12.8865 31.5278 12.4841C32.7371 11.8453 33.2045 11.8178 34.0413 12.3361ZM31.5938 14.6488C29.7387 15.1353 28.451 16.3495 27.8271 18.2003C27.2573 19.8907 27.6812 22.1215 28.8325 23.4923C29.9374 24.8076 32.6599 25.7449 33.8243 25.2108C34.1864 25.0448 34.4658 24.4224 34.3394 24.0632C34.1602 23.5541 33.8696 23.3696 33.2469 23.3696C31.1359 23.3696 29.5529 21.8595 29.5497 19.8425C29.5461 17.5267 31.8543 15.8873 34.0304 16.6602C34.8688 16.9578 35.5629 17.5833 35.9588 18.3978C36.2641 19.0261 36.3108 19.2817 36.2976 20.2538C36.2803 21.5299 36.484 21.9085 37.1874 21.9085C37.8057 21.9085 38.127 21.5413 38.234 20.7128C38.6445 17.5345 36.3573 14.6806 33.2762 14.5267C32.688 14.4973 31.9733 14.5491 31.5938 14.6488ZM32.8379 29.8782C33.5791 29.8782 34.3134 29.6416 35.0757 29.1572L35.6186 28.8122V32.6658C35.6186 34.7853 35.5862 36.5196 35.5468 36.5196C35.5072 36.5196 35.0076 36.1367 34.4365 35.6688C33.8654 35.2008 33.2764 34.7791 33.1277 34.7316C32.7734 34.6184 32.4688 34.7937 31.235 35.8211L30.2082 36.6762V32.758V28.8397L31.205 29.3589C31.9599 29.7521 32.3563 29.8782 32.8379 29.8782ZM17.6239 44.7646C17.1882 45.1095 17.1471 45.8204 17.5401 46.216C17.801 46.4786 17.9799 46.4816 32.8561 46.4816C43.2136 46.4816 47.9898 46.4377 48.1698 46.3407C48.8027 45.9997 48.7431 44.9463 48.0736 44.6393C47.8366 44.5305 43.6425 44.4892 32.859 44.4892C17.9976 44.4892 17.9709 44.4898 17.6239 44.7646ZM17.6239 50.609C17.1882 50.954 17.1471 51.6649 17.5401 52.0604C17.801 52.323 17.9799 52.3261 32.8561 52.3261C43.2136 52.3261 47.9898 52.2821 48.1698 52.1851C48.8027 51.8442 48.7431 50.7907 48.0736 50.4838C47.8366 50.375 43.6425 50.3337 32.859 50.3337C17.9976 50.3337 17.9709 50.3342 17.6239 50.609ZM24.6178 56.4534C24.3656 56.6531 24.27 56.8511 24.27 57.1743C24.27 57.4975 24.3656 57.6955 24.6178 57.8952C24.9608 58.1668 25.0718 58.1705 32.9723 58.1705C40.8477 58.1705 40.9839 58.1661 41.2679 57.8997C41.6866 57.507 41.6582 56.809 41.209 56.4534C40.8661 56.1818 40.7543 56.1781 32.9134 56.1781C25.0725 56.1781 24.9607 56.1818 24.6178 56.4534ZM9.62252 63.0894C9.62252 63.3702 9.21793 64.1871 8.84237 64.6643C8.62886 64.9356 8.13824 65.3338 7.75186 65.5492C7.13653 65.8923 6.91814 65.9407 5.99363 65.9387C5.14724 65.9368 4.82024 65.8748 4.34413 65.6257C3.33517 65.0979 2.61704 64.3017 2.23317 63.2853L2.10741 62.9523H5.86497C8.35993 62.9523 9.62252 62.9984 9.62252 63.0894Z" fill="white"/>
</svg>
