<svg width="123" height="46" viewBox="0 0 123 46" fill="none" xmlns="http://www.w3.org/2000/svg">
<path d="M69.4648 26.2645C68.2833 27.4215 66.8374 28 65.127 28C63.4166 28 61.965 27.4215 60.7723 26.2645C59.5908 25.0964 59 23.6749 59 22C59 20.3251 59.5908 18.9091 60.7723 17.7521C61.965 16.584 63.4166 16 65.127 16C66.8374 16 68.2833 16.584 69.4648 17.7521C70.6576 18.9091 71.2539 20.3251 71.2539 22C71.2539 23.6749 70.6576 25.0964 69.4648 26.2645ZM62.1394 24.9752C62.9609 25.7576 63.9567 26.1488 65.127 26.1488C66.3085 26.1488 67.2987 25.7576 68.0976 24.9752C68.9078 24.1818 69.3129 23.1901 69.3129 22C69.3129 20.8099 68.9078 19.8237 68.0976 19.0413C67.2987 18.2479 66.3085 17.8512 65.127 17.8512C63.9455 17.8512 62.9496 18.2479 62.1394 19.0413C61.3405 19.8237 60.9411 20.8099 60.9411 22C60.9411 23.1791 61.3405 24.1708 62.1394 24.9752Z" fill="white"/>
<path d="M71.4204 16.2149H80.0285V18.0331H76.7034V27.7851H74.7623V18.0331H71.4204V16.2149Z" fill="white"/>
<path d="M81.4639 16.2149H85.8186C86.9326 16.2149 87.8609 16.5785 88.6036 17.3058C89.3575 18.0331 89.7344 18.9366 89.7344 20.0165C89.7344 21.0854 89.3575 21.989 88.6036 22.7273C87.8609 23.4545 86.9326 23.8182 85.8186 23.8182H83.4049V27.7851H81.4639V16.2149ZM83.4049 22.0331H85.8186C86.3924 22.0331 86.865 21.8457 87.2364 21.4711C87.6077 21.0854 87.7934 20.6006 87.7934 20.0165C87.7934 19.4325 87.6077 18.9532 87.2364 18.5785C86.865 18.1928 86.3924 18 85.8186 18H83.4049V22.0331Z" fill="white"/>
<path d="M100.023 27.7851H97.9296L97.1025 25.4545H92.0727L91.2456 27.7851H89.1358L93.423 16.2149H95.7522L100.023 27.7851ZM94.5876 18.4463L92.714 23.6694H96.4611L94.5876 18.4463Z" fill="white"/>
<path d="M110.204 16.2149V25.9669H111.47V30H109.529V27.7851H102.355V30H100.414V25.9669H101.511C102.198 25.0964 102.541 23.7686 102.541 21.9835V16.2149H110.204ZM103.638 25.9669H108.263V18H104.482V22.0165C104.482 23.7355 104.201 25.0523 103.638 25.9669Z" fill="white"/>
<path d="M123 27.7851H120.907L120.08 25.4545H115.05L114.223 27.7851H112.113L116.4 16.2149H118.73L123 27.7851ZM117.565 18.4463L115.692 23.6694H119.439L117.565 18.4463Z" fill="white"/>
<path d="M23.4645 29.5218L23.1439 29.2232L22.8058 29.5019C21.5721 30.5189 20.1569 32.9354 19.7387 35.7455C19.3155 38.5893 19.9043 41.8996 22.7788 44.64L23.1563 44.9998L23.4999 44.6075C26.1904 41.5363 26.7522 38.2805 26.3506 35.5346C25.9527 32.8147 24.6091 30.5874 23.4645 29.5218ZM20.7278 35.8927C21.0757 33.5551 22.1639 31.5747 23.1077 30.5869C24.0121 31.6005 25.0343 33.4448 25.3611 35.6793C25.7066 38.0412 25.2748 40.8327 23.0923 43.5388C20.822 41.1442 20.3623 38.3489 20.7278 35.8927ZM23.1134 28.9364C24.6778 30.3294 26.26 32.6858 26.695 35.5138C27.139 38.3998 26.3974 41.831 23.1076 45.2997C19.6929 42.0128 18.8984 38.5887 19.3475 35.6612C19.7894 32.7808 21.4431 30.3345 23.1134 28.9364Z" fill="url(#paint0_linear_181_53833)" stroke="url(#paint1_linear_181_53833)"/>
<path d="M1.25396 22.9859L0.945387 23.3103L1.2338 23.6527C2.26195 24.8733 4.70286 26.2718 7.53969 26.685C10.409 27.1029 13.7511 26.5224 16.5203 23.6794L16.8921 23.2978L16.4876 22.951C13.3843 20.2902 10.0971 19.7362 7.32644 20.1328C4.58085 20.5258 2.33115 21.8537 1.25396 22.9859ZM7.68382 25.6954C5.32414 25.3517 3.32521 24.2789 2.32376 23.3468C3.35033 22.4536 5.21226 21.4457 7.46815 21.1227C9.85785 20.7806 12.6797 21.2081 15.4137 23.3623C12.9941 25.6023 10.1686 26.0573 7.68382 25.6954ZM0.6537 23.3411C2.0622 21.7961 4.4425 20.2334 7.30079 19.8031C10.2218 19.3632 13.6907 20.0981 17.1947 23.347C13.8745 26.7185 10.4129 27.5059 7.44978 27.061C4.5384 26.6238 2.06757 24.9904 0.6537 23.3411Z" fill="url(#paint2_linear_181_53833)" stroke="url(#paint3_linear_181_53833)"/>
<path d="M29.3511 22.9859L29.0426 23.3103L29.331 23.6527C30.3591 24.8733 32.8 26.2718 35.6369 26.685C38.5062 27.1029 41.8483 26.5224 44.6175 23.6794L44.9893 23.2978L44.5848 22.951C41.4815 20.2902 38.1942 19.7362 35.4236 20.1328C32.678 20.5258 30.4283 21.8537 29.3511 22.9859ZM35.781 25.6954C33.4213 25.3517 31.4224 24.2789 30.4209 23.3468C31.4475 22.4536 33.3094 21.4457 35.5653 21.1227C37.955 20.7806 40.7769 21.2081 43.5109 23.3623C41.0913 25.6023 38.2657 26.0573 35.781 25.6954ZM28.7509 23.3411C30.1594 21.7961 32.5397 20.2334 35.398 19.8031C38.319 19.3632 41.7879 20.0981 45.2918 23.347C41.9716 26.7185 38.5101 27.5059 35.5469 27.061C32.6356 26.6238 30.1647 24.9904 28.7509 23.3411Z" fill="url(#paint4_linear_181_53833)" stroke="url(#paint5_linear_181_53833)"/>
<path d="M27.242 18.6107L27.26 19.0508L27.7037 19.0862C29.3045 19.2138 32.0236 18.4677 34.3088 16.7511C36.6208 15.0143 38.5413 12.2442 38.4266 8.29714L38.4114 7.7732L37.8833 7.81588C33.7897 8.14677 31.087 10.0827 29.4329 12.3202C27.7941 14.5369 27.1783 17.0571 27.242 18.6107ZM33.7009 15.959C31.8 17.3869 29.6241 18.0483 28.2507 18.1021C28.3229 16.7517 28.8979 14.7286 30.2444 12.9072C31.6691 10.98 33.9525 9.28508 37.4235 8.86195C37.3494 12.1419 35.7004 14.457 33.7009 15.959ZM27.0784 19.2776C26.9475 17.2003 27.4847 14.4231 29.1745 12.1019C30.9 9.73153 33.8577 7.79427 38.6586 7.59318C38.7709 12.3021 36.9165 15.2987 34.5231 17.08C32.1699 18.8315 29.2597 19.4341 27.0784 19.2776Z" fill="url(#paint6_linear_181_53833)" stroke="url(#paint7_linear_181_53833)"/>
<path d="M27.242 28.0229L27.26 27.5829L27.7037 27.5475C29.3045 27.4198 32.0236 28.166 34.3088 29.8826C36.6208 31.6193 38.5413 34.3894 38.4266 38.3365L38.4114 38.8604L37.8833 38.8178C33.7897 38.4869 31.087 36.5509 29.4329 34.3135C27.7941 32.0967 27.1783 29.5765 27.242 28.0229ZM33.7009 30.6747C31.8 29.2467 29.6241 28.5853 28.2507 28.5316C28.3229 29.8819 28.8979 31.9051 30.2444 33.7264C31.6691 35.6536 33.9525 37.3486 37.4235 37.7717C37.3494 34.4918 35.7004 32.1766 33.7009 30.6747ZM27.0784 27.3561C26.9475 29.4334 27.4847 32.2106 29.1745 34.5317C30.9 36.9021 33.8577 38.8394 38.6586 39.0405C38.7709 34.3315 36.9165 31.3349 34.5231 29.5536C32.1699 27.8021 29.2597 27.1995 27.0784 27.3561Z" fill="url(#paint8_linear_181_53833)" stroke="url(#paint9_linear_181_53833)"/>
<path d="M18.7663 18.6107L18.7483 19.0508L18.3046 19.0862C16.7038 19.2138 13.9847 18.4677 11.6995 16.7511C9.38753 15.0143 7.46701 12.2442 7.58166 8.29714L7.59688 7.7732L8.12496 7.81588C12.2186 8.14677 14.9213 10.0827 16.5754 12.3202C18.2142 14.5369 18.83 17.0571 18.7663 18.6107ZM12.3074 15.959C14.2083 17.3869 16.3842 18.0483 17.7576 18.1021C17.6854 16.7517 17.1104 14.7286 15.7639 12.9072C14.3392 10.98 12.0558 9.28508 8.58476 8.86195C8.6589 12.1419 10.3079 14.457 12.3074 15.959ZM18.9299 19.2776C19.0608 17.2003 18.5236 14.4231 16.8338 12.1019C15.1083 9.73153 12.1506 7.79427 7.34972 7.59318C7.23742 12.3021 9.0918 15.2987 11.4852 17.08C13.8384 18.8315 16.7486 19.4341 18.9299 19.2776Z" fill="url(#paint10_linear_181_53833)" stroke="url(#paint11_linear_181_53833)"/>
<path d="M18.7663 28.0229L18.7483 27.5829L18.3046 27.5475C16.7038 27.4198 13.9847 28.166 11.6995 29.8826C9.38753 31.6193 7.46701 34.3894 7.58166 38.3365L7.59688 38.8604L8.12496 38.8178C12.2186 38.4869 14.9213 36.5509 16.5754 34.3135C18.2142 32.0967 18.83 29.5765 18.7663 28.0229ZM12.3074 30.6747C14.2083 29.2467 16.3842 28.5853 17.7576 28.5316C17.6854 29.8819 17.1104 31.9051 15.7639 33.7264C14.3392 35.6536 12.0558 37.3486 8.58476 37.7717C8.6589 34.4918 10.3079 32.1766 12.3074 30.6747ZM18.9299 27.3561C19.0608 29.4334 18.5236 32.2106 16.8338 34.5317C15.1083 36.9021 12.1506 38.8394 7.34972 39.0405C7.23742 34.3315 9.0918 31.3349 11.4852 29.5536C13.8384 27.8021 16.7486 27.1995 18.9299 27.3561Z" fill="url(#paint12_linear_181_53833)" stroke="url(#paint13_linear_181_53833)"/>
<path fill-rule="evenodd" clip-rule="evenodd" d="M23.1238 0C26.6049 2.82888 30.4838 10.3316 23.1238 17.7112C15.4654 10.7251 19.3941 2.82888 23.1238 0ZM23.1238 1.59893C25.2373 3.56685 28.2957 10.0856 23.1238 15.9893C17.6536 10.7743 20.886 3.44385 23.1238 1.59893Z" fill="#FECF02"/>
<path d="M23.1238 1.59893C25.2373 3.56685 28.2957 10.0856 23.1238 15.9893C17.6536 10.7743 20.886 3.44385 23.1238 1.59893Z" fill="#FECF02"/>
<defs>
<linearGradient id="paint0_linear_181_53833" x1="23.0225" y1="28.2888" x2="23.0225" y2="46" gradientUnits="userSpaceOnUse">
<stop stop-color="#76C043"/>
<stop offset="1" stop-color="#026F0F"/>
</linearGradient>
<linearGradient id="paint1_linear_181_53833" x1="23.0225" y1="28.2888" x2="23.0225" y2="46" gradientUnits="userSpaceOnUse">
<stop stop-color="#76C043"/>
<stop offset="1" stop-color="#026F0F"/>
</linearGradient>
<linearGradient id="paint2_linear_181_53833" x1="0" y1="23.4308" x2="17.9027" y2="23.4308" gradientUnits="userSpaceOnUse">
<stop stop-color="#76C043"/>
<stop offset="1" stop-color="#026F0F"/>
</linearGradient>
<linearGradient id="paint3_linear_181_53833" x1="0" y1="23.4308" x2="17.9027" y2="23.4308" gradientUnits="userSpaceOnUse">
<stop stop-color="#76C043"/>
<stop offset="1" stop-color="#026F0F"/>
</linearGradient>
<linearGradient id="paint4_linear_181_53833" x1="28.0972" y1="23.4308" x2="45.9999" y2="23.4308" gradientUnits="userSpaceOnUse">
<stop stop-color="#76C043"/>
<stop offset="1" stop-color="#026F0F"/>
</linearGradient>
<linearGradient id="paint5_linear_181_53833" x1="28.0972" y1="23.4308" x2="45.9999" y2="23.4308" gradientUnits="userSpaceOnUse">
<stop stop-color="#76C043"/>
<stop offset="1" stop-color="#026F0F"/>
</linearGradient>
<linearGradient id="paint6_linear_181_53833" x1="26.6855" y1="19.8027" x2="39.0772" y2="7.01854" gradientUnits="userSpaceOnUse">
<stop stop-color="#76C043"/>
<stop offset="1" stop-color="#026F0F"/>
</linearGradient>
<linearGradient id="paint7_linear_181_53833" x1="26.6855" y1="19.8027" x2="39.0772" y2="7.01854" gradientUnits="userSpaceOnUse">
<stop stop-color="#76C043"/>
<stop offset="1" stop-color="#026F0F"/>
</linearGradient>
<linearGradient id="paint8_linear_181_53833" x1="26.6855" y1="26.8309" x2="39.0772" y2="39.6151" gradientUnits="userSpaceOnUse">
<stop stop-color="#76C043"/>
<stop offset="1" stop-color="#026F0F"/>
</linearGradient>
<linearGradient id="paint9_linear_181_53833" x1="26.6855" y1="26.8309" x2="39.0772" y2="39.6151" gradientUnits="userSpaceOnUse">
<stop stop-color="#76C043"/>
<stop offset="1" stop-color="#026F0F"/>
</linearGradient>
<linearGradient id="paint10_linear_181_53833" x1="19.3228" y1="19.8027" x2="6.93106" y2="7.01854" gradientUnits="userSpaceOnUse">
<stop stop-color="#76C043"/>
<stop offset="1" stop-color="#026F0F"/>
</linearGradient>
<linearGradient id="paint11_linear_181_53833" x1="19.3228" y1="19.8027" x2="6.93106" y2="7.01854" gradientUnits="userSpaceOnUse">
<stop stop-color="#76C043"/>
<stop offset="1" stop-color="#026F0F"/>
</linearGradient>
<linearGradient id="paint12_linear_181_53833" x1="19.3228" y1="26.8309" x2="6.93106" y2="39.6151" gradientUnits="userSpaceOnUse">
<stop stop-color="#76C043"/>
<stop offset="1" stop-color="#026F0F"/>
</linearGradient>
<linearGradient id="paint13_linear_181_53833" x1="19.3228" y1="26.8309" x2="6.93106" y2="39.6151" gradientUnits="userSpaceOnUse">
<stop stop-color="#76C043"/>
<stop offset="1" stop-color="#026F0F"/>
</linearGradient>
</defs>
</svg>
