<svg width="64" height="61" viewBox="0 0 64 61" fill="none" xmlns="http://www.w3.org/2000/svg">
<path fill-rule="evenodd" clip-rule="evenodd" d="M22.0714 0.277013C21.7711 0.429392 21.088 1.02541 20.5534 1.60142C15.698 6.83448 15.1733 7.33407 14.0025 7.83927C9.81076 9.64812 7.17233 10.8297 6.75999 11.0826C6.49668 11.2441 6.17715 11.5971 6.05022 11.8668C5.9181 12.1474 5.61716 14.0748 5.34638 16.3751C5.08627 18.585 4.83469 20.6444 4.7873 20.9518C4.74007 21.2591 4.27333 22.2484 3.75006 23.1503C-0.169868 29.9068 0.00110056 29.5801 0.00110056 30.3109C0.00110056 30.9262 0.266239 31.4772 2.29439 35.0788L4.58769 39.151L5.05214 43.7212C5.37686 46.9156 5.5943 48.4512 5.77456 48.822C6.06911 49.4282 6.70163 49.7738 11.8529 52.1429L14.9429 53.564L17.997 56.9582C19.6768 58.8251 21.2006 60.4465 21.3831 60.5615C22.0911 61.0071 22.6083 60.9611 27.1927 60.0447L31.7561 59.1326L36.3854 60.1207C40.4377 60.9857 41.0893 61.0887 41.6149 60.9478C42.1252 60.8112 42.7001 60.2658 45.4505 57.3098L48.686 53.8327L52.8764 51.9918C57.0387 50.1633 57.7347 49.7595 58.044 48.9938C58.1325 48.7743 58.4452 46.5662 58.7385 44.0871L59.272 39.5794L61.636 35.5273C63.7493 31.9051 64 31.4017 64 30.7811C64 30.1811 63.7806 29.6961 62.3857 27.211C61.4978 25.6293 60.4647 23.7753 60.0898 23.091L59.4082 21.8467L58.9663 17.5568C58.7234 15.1973 58.4874 13.0679 58.442 12.8247C58.2518 11.8058 57.8569 11.5466 53.3696 9.49574L49.0995 7.54422L45.9976 4.08089C43.4207 1.20372 42.7819 0.572976 42.2236 0.354642L41.5518 0.0918829L37.1189 0.962037C34.681 1.44071 32.4595 1.82931 32.1822 1.82582C31.905 1.82234 29.7773 1.41008 27.454 0.909728C25.1307 0.409377 23.0921 0 22.9237 0C22.7553 0 22.3718 0.124633 22.0714 0.277013ZM32.2291 4.56046C32.7577 4.56441 34.856 4.22189 37.2027 3.74899L41.2621 2.93069L43.7843 5.74872C47.5765 9.98532 47.0673 9.59808 51.5897 11.6867C53.764 12.6909 55.6001 13.5686 55.6699 13.6373C55.7397 13.706 55.9942 15.6484 56.2354 17.9541C56.4768 20.2596 56.738 22.3763 56.8161 22.6578C56.8943 22.9392 57.9203 24.8804 59.0962 26.9714L61.2343 30.7734L59.0815 34.453C57.8974 36.4769 56.8411 38.3857 56.7341 38.6948C56.627 39.0038 56.3291 41.0507 56.0719 43.2434C55.8147 45.436 55.5762 47.3665 55.5421 47.5333C55.4939 47.768 54.574 48.2304 51.4734 49.5788L47.467 51.3212L46.0131 52.7628C45.2136 53.5558 44.1227 54.6822 43.5889 55.2659C43.0553 55.8497 42.203 56.7634 41.6953 57.2963L40.7719 58.2653L36.8053 57.4117C34.6236 56.9421 32.5301 56.5192 32.1529 56.4719C31.6548 56.4095 30.323 56.6164 27.2846 57.2285C24.9843 57.6919 23.0157 58.0709 22.9103 58.0709C22.8047 58.0709 21.4747 56.6892 19.9549 55.0006C18.4351 53.312 16.969 51.7448 16.6969 51.5182C16.4249 51.2915 14.4598 50.3123 12.3302 49.3423C10.2005 48.3722 8.40172 47.5258 8.33284 47.4615C8.26397 47.3973 8.0063 45.4084 7.7602 43.0419C7.51411 40.6754 7.24471 38.5345 7.16136 38.2844C7.07801 38.0342 6.05555 36.1347 4.88909 34.0632L2.76844 30.2968L3.84317 28.4532C4.43424 27.4392 5.3924 25.8061 5.97235 24.824C6.5523 23.842 7.12677 22.7568 7.24882 22.4125C7.37088 22.0682 7.67762 20.006 7.93026 17.8299C8.18306 15.6538 8.42061 13.7317 8.45825 13.5587C8.51204 13.3113 9.39096 12.8617 12.5661 11.4573C15.4552 10.1792 16.7904 9.50726 17.2555 9.09712C17.613 8.78175 19.0933 7.23385 20.5449 5.6576L23.1842 2.7915L27.2495 3.67272C29.5719 4.1761 31.7068 4.55683 32.2291 4.56046ZM42.9339 21.238C42.6693 21.3102 39.8927 23.9278 35.3911 28.3489L28.2673 35.3456L24.8011 31.8494C21.3921 28.4106 21.2023 28.2608 20.3436 28.3295C19.2483 28.4172 18.5547 29.6946 19.07 30.6754C19.3315 31.1732 26.6516 38.5471 27.1878 38.8529C27.9256 39.2737 28.947 39.2015 29.6539 38.6787C29.9808 38.4369 33.5224 34.9742 37.5241 30.9835C42.5453 25.9762 44.8395 23.5871 44.9276 23.2734C45.2738 22.0395 44.161 20.9034 42.9339 21.238Z" fill="white"/>
</svg>
